<?xml version="1.0" encoding="utf-8"?>
<!-- Generator: Adobe Illustrator 26.5.0, SVG Export Plug-In . SVG Version: 6.00 Build 0)  -->
<svg version="1.1" id="Layer_1" xmlns="http://www.w3.org/2000/svg" xmlns:xlink="http://www.w3.org/1999/xlink" x="0px" y="0px"
	 viewBox="0 0 1694.82 858.8" style="enable-background:new 0 0 1694.82 858.8;" xml:space="preserve">
<style type="text/css">
	.st0{fill:url(#SVGID_1_);}
	.st1{fill:url(#SVGID_00000105392749204040803910000012724334561961614729_);}
	.st2{fill:url(#SVGID_00000024001248610028418790000015050306008775416718_);}
	.st3{fill:url(#SVGID_00000098921097814436752280000011460321949455671441_);}
	.st4{fill:url(#SVGID_00000053543702615406564440000000102982035690962608_);}
	.st5{fill:url(#SVGID_00000137092696248888273980000000439820687152755333_);}
	.st6{fill:#010101;}
	.st7{fill:none;stroke:#38B34A;stroke-width:4;stroke-miterlimit:10;}
</style>
<g id="Layer_2_00000073699298630684745750000002045661987957240242_">
	<g id="Layer_1-2">
		<g>
			
				<linearGradient id="SVGID_1_" gradientUnits="userSpaceOnUse" x1="23.4581" y1="566.146" x2="1606.0541" y2="350.5438" gradientTransform="matrix(1 0 0 -1 0 858)">
				<stop  offset="0" style="stop-color:#F4BA19"/>
				<stop  offset="0.15" style="stop-color:#F68827"/>
				<stop  offset="0.32" style="stop-color:#F15646"/>
				<stop  offset="0.39" style="stop-color:#ED3852"/>
				<stop  offset="0.47" style="stop-color:#E91560"/>
				<stop  offset="0.59" style="stop-color:#BF1C7C"/>
				<stop  offset="0.75" style="stop-color:#7D298A"/>
				<stop  offset="0.8" style="stop-color:#6F2B8A"/>
				<stop  offset="0.91" style="stop-color:#4A3189"/>
				<stop  offset="1" style="stop-color:#2A3689"/>
			</linearGradient>
			<path class="st0" d="M107.49,464.04H0l24.61-74.16h102.54l69.16-237.05h94.07l-67,226.64c0,0-7.53,44.3-46.91,66.82
				c-1.56,0.89-3.13,1.78-4.66,2.73C165.78,452.57,143.88,464.04,107.49,464.04z"/>
			
				<linearGradient id="SVGID_00000016069486664000208210000008518781096517717949_" gradientUnits="userSpaceOnUse" x1="27.1065" y1="592.8978" x2="1609.7026" y2="377.2956" gradientTransform="matrix(1 0 0 -1 0 858)">
				<stop  offset="0" style="stop-color:#F4BA19"/>
				<stop  offset="0.15" style="stop-color:#F68827"/>
				<stop  offset="0.32" style="stop-color:#F15646"/>
				<stop  offset="0.39" style="stop-color:#ED3852"/>
				<stop  offset="0.47" style="stop-color:#E91560"/>
				<stop  offset="0.59" style="stop-color:#BF1C7C"/>
				<stop  offset="0.75" style="stop-color:#7D298A"/>
				<stop  offset="0.8" style="stop-color:#6F2B8A"/>
				<stop  offset="0.91" style="stop-color:#4A3189"/>
				<stop  offset="1" style="stop-color:#2A3689"/>
			</linearGradient>
			<path style="fill:url(#SVGID_00000016069486664000208210000008518781096517717949_);" d="M355.38,154.5h92.9l-93.74,310.37
				h-94.15L355.38,154.5z"/>
			
				<linearGradient id="SVGID_00000010297878393464497170000001640603106111599744_" gradientUnits="userSpaceOnUse" x1="31.7743" y1="627.1612" x2="1614.3704" y2="411.5589" gradientTransform="matrix(1 0 0 -1 0 858)">
				<stop  offset="0" style="stop-color:#F4BA19"/>
				<stop  offset="0.15" style="stop-color:#F68827"/>
				<stop  offset="0.32" style="stop-color:#F15646"/>
				<stop  offset="0.39" style="stop-color:#ED3852"/>
				<stop  offset="0.47" style="stop-color:#E91560"/>
				<stop  offset="0.59" style="stop-color:#BF1C7C"/>
				<stop  offset="0.75" style="stop-color:#7D298A"/>
				<stop  offset="0.8" style="stop-color:#6F2B8A"/>
				<stop  offset="0.91" style="stop-color:#4A3189"/>
				<stop  offset="1" style="stop-color:#2A3689"/>
			</linearGradient>
			<path style="fill:url(#SVGID_00000010297878393464497170000001640603106111599744_);" d="M668.68,334.48l54.99-179.99h89.16
				l-92.97,310.37H609.1l-43.75-215.81l-64.99,215.82h-92.07l93.33-310.37h93.32c5.1,0.01,10.17,0.78,15.04,2.28
				c4.91,1.49,9.55,3.74,13.75,6.67c4.06,2.81,7.65,6.26,10.62,10.2c2.94,3.96,5,8.51,6.04,13.33L668.68,334.48z"/>
			
				<linearGradient id="SVGID_00000128467902814395605950000010962749814308937088_" gradientUnits="userSpaceOnUse" x1="37.2419" y1="667.2952" x2="1619.838" y2="451.693" gradientTransform="matrix(1 0 0 -1 0 858)">
				<stop  offset="0" style="stop-color:#F4BA19"/>
				<stop  offset="0.15" style="stop-color:#F68827"/>
				<stop  offset="0.32" style="stop-color:#F15646"/>
				<stop  offset="0.39" style="stop-color:#ED3852"/>
				<stop  offset="0.47" style="stop-color:#E91560"/>
				<stop  offset="0.59" style="stop-color:#BF1C7C"/>
				<stop  offset="0.75" style="stop-color:#7D298A"/>
				<stop  offset="0.8" style="stop-color:#6F2B8A"/>
				<stop  offset="0.91" style="stop-color:#4A3189"/>
				<stop  offset="1" style="stop-color:#2A3689"/>
			</linearGradient>
			<path style="fill:url(#SVGID_00000128467902814395605950000010962749814308937088_);" d="M775.33,465.3l91.25-311.23h169.98
				c13.06-0.04,26.05,1.86,38.54,5.63c12.46,3.81,23.72,10.77,32.7,20.21c5.6,5.89,9.98,12.83,12.91,20.41
				c3.05,7.69,4.6,15.89,4.59,24.16c-0.22,7.69-1.06,15.36-2.5,22.92c-1.67,9.73-3.95,20.56-6.84,32.5
				c-2.89,11.94-6.15,24.44-9.79,37.49c-3.65,13.05-7.4,25.41-11.25,37.08c-3.86,11.67-7.61,22.15-11.25,31.45
				c-3.65,9.31-6.98,16.18-9.99,20.62c-5.1,7.63-10.66,14.94-16.67,21.88c-5.98,6.96-12.7,13.26-20.03,18.77
				c-7.09,5.33-14.87,9.68-23.13,12.92c-8.17,3.18-16.86,4.81-25.62,4.79L775.33,465.3z M946.15,401.55
				c6.33,0.07,12.66-0.28,18.95-1.04c4.47-0.5,8.82-1.69,12.92-3.54c3.35-1.58,6.34-3.85,8.75-6.66c2.7-3.27,5.14-6.76,7.29-10.42
				c2.35-4.67,4.43-9.47,6.25-14.37c2.73-7.08,5.79-15.29,9.16-24.61s6.71-19.19,10.01-29.59c3.34-10.4,6.39-20.33,9.16-29.78
				c2.77-9.45,5.05-17.86,6.84-25.21c1.82-7.36,2.73-12.7,2.73-16.04c-0.04-3.55-0.67-7.07-1.87-10.42
				c-1.21-3.52-2.97-6.82-5.21-9.79c-2.16-2.85-4.84-5.26-7.92-7.08c-3.16-1.84-6.76-2.79-10.42-2.73h-71.23l-54.99,191.28H946.15z"
				/>
			
				<linearGradient id="SVGID_00000127737014856790854660000012595136687447713692_" gradientUnits="userSpaceOnUse" x1="43.352" y1="712.145" x2="1625.948" y2="496.5428" gradientTransform="matrix(1 0 0 -1 0 858)">
				<stop  offset="0" style="stop-color:#F4BA19"/>
				<stop  offset="0.15" style="stop-color:#F68827"/>
				<stop  offset="0.32" style="stop-color:#F15646"/>
				<stop  offset="0.39" style="stop-color:#ED3852"/>
				<stop  offset="0.47" style="stop-color:#E91560"/>
				<stop  offset="0.59" style="stop-color:#BF1C7C"/>
				<stop  offset="0.75" style="stop-color:#7D298A"/>
				<stop  offset="0.8" style="stop-color:#6F2B8A"/>
				<stop  offset="0.91" style="stop-color:#4A3189"/>
				<stop  offset="1" style="stop-color:#2A3689"/>
			</linearGradient>
			<path style="fill:url(#SVGID_00000127737014856790854660000012595136687447713692_);" d="M1221.48,399.06l-37.49,65.82h-97.87
				l150.82-251.57c8.6-14.16,16.99-25.2,25.2-33.11c6.79-6.83,14.42-12.78,22.71-17.71c6.95-3.88,12.92-6.24,17.91-7.08
				c3.44-0.66,6.92-1.08,10.42-1.26h89.99v310.74h-86.23v-65.82l1.65-56.25V225.69l-65.41,117.08L1221.48,399.06z"/>
			
				<linearGradient id="SVGID_00000183956406605949529490000007567736741352312500_" gradientUnits="userSpaceOnUse" x1="48.9377" y1="753.1465" x2="1631.5338" y2="537.5443" gradientTransform="matrix(1 0 0 -1 0 858)">
				<stop  offset="0" style="stop-color:#F4BA19"/>
				<stop  offset="0.15" style="stop-color:#F68827"/>
				<stop  offset="0.32" style="stop-color:#F15646"/>
				<stop  offset="0.39" style="stop-color:#ED3852"/>
				<stop  offset="0.47" style="stop-color:#E91560"/>
				<stop  offset="0.59" style="stop-color:#BF1C7C"/>
				<stop  offset="0.75" style="stop-color:#7D298A"/>
				<stop  offset="0.8" style="stop-color:#6F2B8A"/>
				<stop  offset="0.91" style="stop-color:#4A3189"/>
				<stop  offset="1" style="stop-color:#2A3689"/>
			</linearGradient>
			<path style="fill:url(#SVGID_00000183956406605949529490000007567736741352312500_);" d="M1544.42,381.97
				c3.65,4.45,7.4,7.09,11.25,7.92c23.15,3.6,46.62,4.58,69.99,2.93c23.23-1.69,46.34-4.89,69.16-9.57l-22.08,77.07
				c-29.33,5.12-58.98,8.18-88.73,9.16c-28.56,0.82-57.14-0.85-85.41-4.99c-24.45-3.06-41.18-13.69-50.21-31.87
				c-9.02-18.18-9.37-43.11-1.04-74.79c0.27-1.67,0.68-3.61,1.24-5.84c0.56-2.23,1.53-5.76,2.93-10.62
				c1.39-4.87,3.25-11.59,5.62-20.21c2.37-8.61,5.69-20.19,9.99-34.78s9.79-32.64,16.41-54.16s14.73-47.57,24.16-78.12h92.97
				l-52.5,173.74c-1.39,7.22-2.99,14.16-4.79,20.84c-1.84,6.81-3.03,13.79-3.54,20.82C1539.29,373.37,1540.81,377.53,1544.42,381.97
				z"/>
			<path class="st6" d="M176.9,673.99c-4.03-0.87-7.91-2.34-11.51-4.36c-3.37-1.92-6.41-4.37-9-7.26l12.48-11.35
				c2.99,3.47,6.78,6.17,11.05,7.85c4.8,1.83,9.9,2.72,15.04,2.63c7.66,0,14-1.42,19.03-4.25c4.76-2.51,8.29-6.86,9.78-12.03v-0.08
				c1.07-3.65,0.95-6.56-0.36-8.75c-1.4-2.25-3.54-3.94-6.04-4.8c-3.56-1.26-7.22-2.22-10.94-2.87c-0.15-0.03-0.3-0.03-0.45,0
				c-0.15,0-0.31-0.02-0.45-0.08l-1.03-0.22c-5.48-0.88-10.86-2.26-16.09-4.1c-3.97-1.51-7.19-4.51-8.98-8.37
				c-1.98-4.05-1.9-9.8,0.23-17.25v-0.08c3.39-12.66,12.75-22.87,25.08-27.35c6.84-2.56,14.09-3.83,21.38-3.75
				c3.64-0.02,7.27,0.4,10.81,1.24c3.4,0.81,6.68,2.04,9.78,3.66c3.16,1.68,6.09,3.74,8.74,6.14l-11.8,11.79
				c-2.95-2.81-6.38-5.06-10.13-6.66c-3.61-1.48-7.48-2.24-11.39-2.21c-7.24,0-13.26,1.44-18.08,4.32
				c-4.69,2.67-8.13,7.1-9.57,12.31v0.08c-1.04,3.62-0.83,6.49,0.63,8.57c1.58,2.18,3.82,3.8,6.39,4.62
				c3.91,1.28,7.9,2.32,11.94,3.09l0.52,0.11c0.18,0.02,0.35,0.06,0.52,0.11l0.75,0.14l0.77,0.15c5.05,1,9.98,2.56,14.68,4.65
				c3.75,1.76,6.7,4.86,8.27,8.7c1.73,3.99,1.61,9.46-0.37,16.41v0.14c-1.71,6.19-4.91,11.87-9.32,16.54
				c-4.54,4.69-10.11,8.27-16.27,10.46C201.36,675.78,188.9,676.51,176.9,673.99z"/>
			<path class="st6" d="M271.33,598.95h14.82l-30.44,106.14H240.9L271.33,598.95z M271.86,672.11c-2.91-2.36-4.71-5.83-4.96-9.57
				l5.54-15.78c-0.89,2.67-1.11,5.52-0.63,8.3c0.43,2.15,1.71,4.04,3.55,5.22c2.27,1.32,4.88,1.95,7.51,1.82
				c4.62,0.1,9.12-1.49,12.66-4.47c3.76-3.33,6.43-7.73,7.66-12.61l4.69-16.41c1.59-5.54,1.46-9.82-0.34-12.88
				s-5.18-4.58-10.08-4.58c-2.94-0.04-5.85,0.56-8.53,1.75c-2.55,1.17-4.78,2.93-6.52,5.13c-1.9,2.4-3.29,5.16-4.1,8.11l2.64-14.55
				c3.25-4.15,7.28-7.62,11.87-10.21c4.06-2.31,8.64-3.55,13.32-3.6c5.33,0,9.56,1.2,12.67,3.6c3.23,2.6,5.27,6.39,5.67,10.51
				c0.67,4.56,0.07,10.1-1.79,16.64l-4.72,16.41c-1.59,5.89-4.22,11.44-7.77,16.41c-3.11,4.36-7.19,7.93-11.92,10.43
				c-4.65,2.46-9.83,3.74-15.09,3.73c-4.06,0.18-8.06-1.04-11.32-3.46L271.86,672.11z"/>
			<path class="st6" d="M344.51,671.53c-4.15-2.56-7.06-6.74-8.01-11.53c-1.14-5.07-0.68-11.19,1.37-18.36l2.43-8.5
				c1.86-6.9,4.99-13.39,9.23-19.14c7.61-10.39,19.8-16.44,32.68-16.22c6.3,0,11.23,1.58,14.78,4.73c3.55,3.15,5.66,7.71,6.3,13.67
				c0.63,5.96-0.25,13.11-2.63,21.45l-1.37,4.94h-50.93l3.42-11.92h36.78c1.34-6.15,1.13-10.94-0.64-14.36
				c-1.77-3.42-4.96-5.13-9.57-5.13c-5.39-0.1-10.62,1.86-14.63,5.47c-4.47,4.26-7.62,9.71-9.08,15.71l-2.73,9.57
				c-1.82,6.26-1.55,11.06,0.82,14.4c2.37,3.34,6.57,5.01,12.59,5.02c3.24-0.04,6.44-0.66,9.46-1.82c3.36-1.23,6.52-2.94,9.38-5.09
				l6.96,9.75c-4.57,3.47-9.61,6.27-14.97,8.31c-4.74,1.91-9.78,2.94-14.89,3.04C354.28,675.52,348.7,674.19,344.51,671.53z"/>
			<path class="st6" d="M424.12,671.59c-4.07-2.49-6.95-6.53-7.96-11.2c-1.17-4.89-0.75-10.82,1.24-17.77l3.55-12.44
				c1.74-6.38,4.76-12.34,8.89-17.51c3.86-4.72,8.77-8.48,14.33-10.98c5.9-2.6,12.29-3.91,18.73-3.81c3.61-0.06,7.2,0.4,10.68,1.37
				c2.97,0.82,5.76,2.22,8.2,4.1c2.2,1.73,3.93,3.98,5.03,6.55l-13.44,9.57c-1.39-2.38-3.43-4.33-5.88-5.61
				c-2.59-1.33-5.47-2-8.38-1.96c-5.3-0.14-10.48,1.55-14.68,4.79c-4.24,3.47-7.25,8.21-8.6,13.52l-3.57,12.44
				c-1.7,5.96-1.46,10.56,0.74,13.81c2.2,3.24,6.18,4.87,11.94,4.87c3.3-0.04,6.56-0.76,9.57-2.11c3.35-1.47,6.43-3.48,9.12-5.96
				l7.73,10.32c-2.64,2.53-5.6,4.7-8.82,6.44c-3.31,1.8-6.84,3.18-10.5,4.1c-3.74,0.91-7.57,1.37-11.42,1.37
				C433.76,675.51,428.26,674.21,424.12,671.59z"/>
			<path class="st6" d="M506.28,598.95h14.83l-21.64,75.46h-14.82L506.28,598.95z M514.96,568.71h14.82l-4.24,14.78h-14.83
				L514.96,568.71z"/>
			<path class="st6" d="M526.62,669.67c-3.5-3.86-4.12-9.71-1.87-17.56c2.15-7.47,5.87-13.06,11.14-16.79
				c5.28-3.73,12.19-5.6,20.73-5.61h21.45l-2.41,11.92h-22.4c-3.33-0.15-6.63,0.75-9.42,2.58c-2.57,1.96-4.38,4.75-5.14,7.89
				c-1.09,3.83-0.64,6.66,1.37,8.5c2.01,1.84,5.61,2.75,10.8,2.73c4.48,0.18,8.95-0.43,13.21-1.82c2.75-0.83,4.92-2.95,5.81-5.67
				l-1.52,10.62c-1.83,1.98-3.94,3.67-6.28,5.02c-2.35,1.33-4.87,2.32-7.49,2.94c-2.88,0.68-5.83,1.01-8.79,0.98
				C536.53,675.49,530.13,673.57,526.62,669.67z M578.33,626.52c1.4-4.94,1.18-8.78-0.66-11.51c-1.84-2.73-5.2-4.1-10.06-4.1
				c-3.13,0.02-6.23,0.48-9.23,1.37c-3.08,0.89-6.03,2.18-8.76,3.86l-8.71-7.41c4-3.53,8.64-6.26,13.67-8.04
				c5.26-1.92,10.81-2.89,16.41-2.87c6.24,0,11.28,1.1,15.12,3.31c3.68,2.03,6.37,5.5,7.42,9.57c1.12,4.18,0.83,9.23-0.86,15.15
				l-13.9,48.5h-14.15L578.33,626.52z"/>
			<path class="st6" d="M621.68,654.87c-0.54,1.37-0.54,2.89,0,4.25c0.6,1.04,1.76,1.63,2.95,1.49h6.99l-4.1,14.1h-8.72
				c-5.63,0-9.48-1.74-11.55-5.22c-2.08-3.5-2.2-8.41-0.38-14.77l24.61-86.07h14.83L621.68,654.87z"/>
			<path class="st6" d="M666,598.95h14.83l-21.64,75.46h-14.83L666,598.95z M674.67,568.71h14.83l-4.25,14.83h-14.78L674.67,568.71z
				"/>
			<path class="st6" d="M689.29,669.67c-1.88-3.36-1.88-8.34,0-14.94l22.34-77.78h14.9l-22.35,77.93c-0.52,1.36-0.57,2.86-0.12,4.25
				c0.51,1.02,1.6,1.61,2.73,1.49h7.12l-4.1,14.1h-8.59C695.14,674.71,691.16,673.03,689.29,669.67z M697.49,598.9h34.03
				l-3.84,13.37h-33.96L697.49,598.9z"/>
			<path class="st6" d="M810.74,598.95l-58.79,93.12c-1.84,3.1-4.18,5.87-6.93,8.2c-2.41,1.99-5.2,3.46-8.2,4.32
				c-3.44,0.95-6.99,1.41-10.56,1.37h-2.98l4.1-14.25h2.98c2.46,0.07,4.9-0.5,7.07-1.67c2.33-1.5,4.34-3.45,5.89-5.74l52.3-85.36
				H810.74z M743.94,598.95h15.12l4.39,65.63l-12.82,16.07L743.94,598.95z"/>
			<path class="st6" d="M860.02,670.57c-4.65-3.28-7.85-8.23-8.94-13.81c-1.36-5.96-0.9-12.87,1.37-20.71l8.33-29.01
				c2.09-7.54,5.66-14.58,10.51-20.71c4.55-5.79,10.31-10.52,16.87-13.85c6.41-3.27,13.5-4.97,20.7-4.96
				c5.46-0.15,10.85,1.2,15.6,3.9c4.29,2.54,7.65,6.4,9.57,11.01c2.15,5.23,2.92,10.93,2.24,16.54h-15.19
				c0.08-3.08-0.64-6.12-2.09-8.83c-1.34-2.52-3.38-4.6-5.87-6c-2.57-1.41-5.47-2.14-8.41-2.11c-4.3-0.01-8.53,1.06-12.31,3.13
				c-3.94,2.17-7.37,5.16-10.06,8.76c-2.96,3.93-5.15,8.37-6.45,13.11l-8.31,29.01c-1.37,4.22-1.73,8.7-1.07,13.08
				c0.52,3.45,2.32,6.58,5.05,8.76c3.04,2.18,6.72,3.26,10.46,3.09c3.29-0.04,6.54-0.7,9.57-1.97c3.39-1.39,6.51-3.36,9.23-5.81
				c2.92-2.62,5.37-5.72,7.25-9.16h15.35c-2.92,6.14-6.89,11.72-11.72,16.5c-4.6,4.61-10,8.34-15.94,11.01
				c-5.58,2.54-11.64,3.87-17.77,3.9C870.63,675.49,864.64,673.87,860.02,670.57z"/>
			<path class="st6" d="M964.58,568.65h14.89l-30.31,105.7h-14.81L964.58,568.65z M993.15,628.63c1.53-5.33,1.33-9.43-0.6-12.31
				c-1.93-2.87-5.38-4.34-10.34-4.42c-4.41-0.13-8.73,1.19-12.31,3.77c-3.47,2.68-5.94,6.44-7.01,10.69l2.64-14.55
				c3.31-4.21,7.42-7.72,12.09-10.35c4.12-2.36,8.77-3.62,13.52-3.68c8.2,0,13.77,2.68,16.71,8.04c2.94,5.36,3.01,12.93,0.22,22.71
				l-13.14,45.8h-14.85L993.15,628.63z"/>
			<path class="st6" d="M1031.28,671.53c-4.15-2.56-7.06-6.74-8.01-11.53c-1.13-5.07-0.67-11.19,1.37-18.36l2.43-8.5
				c1.86-6.9,4.99-13.39,9.23-19.14c7.61-10.39,19.8-16.44,32.68-16.22c6.3,0,11.23,1.58,14.78,4.73c3.55,3.15,5.65,7.71,6.29,13.67
				c0.64,5.96-0.23,13.11-2.61,21.45l-1.37,4.94h-50.93l3.42-11.92h36.78c1.34-6.15,1.13-10.94-0.64-14.36
				c-1.77-3.42-4.96-5.13-9.57-5.13c-5.39-0.1-10.62,1.86-14.63,5.47c-4.46,4.24-7.61,9.67-9.09,15.64l-2.73,9.57
				c-1.82,6.26-1.55,11.06,0.82,14.4s6.57,5.01,12.59,5.02c3.24-0.04,6.44-0.66,9.46-1.82c3.36-1.23,6.52-2.95,9.38-5.09l6.96,9.75
				c-4.59,3.48-9.65,6.28-15.04,8.31c-4.71,1.92-9.72,2.97-14.81,3.1C1041.05,675.52,1035.47,674.19,1031.28,671.53z"/>
			<path class="st6" d="M1118.93,598.95h14.83l-21.67,75.4h-14.83L1118.93,598.95z M1155.48,628.69c1.53-5.33,1.4-9.43-0.38-12.31
				c-1.79-2.87-5.08-4.33-9.87-4.36c-4.42-0.13-8.75,1.22-12.31,3.84c-3.49,2.73-5.98,6.55-7.07,10.84l2.64-14.55
				c3.32-4.28,7.44-7.86,12.14-10.54c4.12-2.38,8.78-3.65,13.54-3.71c5.28,0,9.44,1.2,12.5,3.6c3.14,2.64,5.11,6.42,5.47,10.51
				c0.54,5.61-0.08,11.28-1.83,16.64l-13.13,45.8h-14.83L1155.48,628.69z M1200.6,628.69c1.51-5.33,1.31-9.43-0.6-12.31
				c-1.93-2.91-5.47-4.36-10.39-4.36c-4.35-0.1-8.58,1.4-11.9,4.21c-3.54,3.16-6.04,7.32-7.19,11.92l1.19-14.53
				c3.45-4.67,7.78-8.61,12.74-11.61c4.24-2.61,9.1-4.02,14.07-4.1c5.47,0,9.77,1.2,12.89,3.6c3.27,2.58,5.36,6.37,5.78,10.51
				c0.7,4.56,0.12,10.1-1.75,16.64l-13.14,45.8h-14.82L1200.6,628.69z"/>
			<path class="st6" d="M1246.42,598.95h14.83l-21.64,75.46h-14.82L1246.42,598.95z M1255.08,568.71h14.83l-4.25,14.83h-14.83
				L1255.08,568.71z"/>
			<path class="st6" d="M1275.77,671.59c-4.07-2.48-6.95-6.53-7.96-11.2c-1.17-4.89-0.75-10.82,1.24-17.77l3.55-12.44
				c1.74-6.38,4.76-12.34,8.89-17.51c3.85-4.76,8.75-8.56,14.33-11.09c5.9-2.6,12.29-3.91,18.73-3.81c3.61-0.06,7.2,0.4,10.68,1.37
				c2.98,0.82,5.76,2.21,8.2,4.1c2.2,1.73,3.93,3.98,5.03,6.55l-13.44,9.57c-1.39-2.38-3.43-4.33-5.88-5.61
				c-2.59-1.33-5.47-2-8.38-1.96c-5.3-0.14-10.48,1.55-14.68,4.79c-4.24,3.47-7.25,8.21-8.6,13.52l-3.57,12.44
				c-1.7,5.96-1.46,10.56,0.74,13.81c2.2,3.24,6.18,4.87,11.94,4.87c3.3-0.04,6.56-0.76,9.57-2.11c3.35-1.46,6.43-3.48,9.12-5.96
				l7.72,10.32c-2.64,2.53-5.6,4.7-8.82,6.44c-3.31,1.8-6.84,3.18-10.5,4.1c-3.74,0.91-7.57,1.37-11.42,1.37
				C1285.4,675.47,1279.9,674.21,1275.77,671.59z"/>
			<path class="st6" d="M1340.91,669.67c-3.5-3.86-4.12-9.71-1.87-17.56c2.15-7.47,5.87-13.06,11.14-16.79
				c5.28-3.73,12.19-5.6,20.73-5.61h21.48l-2.41,11.92h-22.4c-3.33-0.15-6.63,0.75-9.42,2.58c-2.57,1.96-4.38,4.75-5.14,7.89
				c-1.09,3.83-0.64,6.66,1.37,8.5c2.01,1.84,5.61,2.75,10.8,2.73c4.48,0.18,8.95-0.43,13.21-1.82c2.75-0.83,4.92-2.95,5.81-5.67
				l-1.52,10.62c-1.83,1.98-3.94,3.67-6.28,5.02c-2.35,1.33-4.87,2.32-7.49,2.94c-2.88,0.68-5.83,1.01-8.79,0.98
				C1350.82,675.49,1344.42,673.57,1340.91,669.67z M1392.62,626.52c1.41-4.94,1.19-8.78-0.66-11.51c-1.85-2.73-5.2-4.1-10.06-4.1
				c-3.13,0.02-6.23,0.48-9.23,1.37c-3.08,0.89-6.03,2.18-8.76,3.86l-8.71-7.41c4-3.53,8.64-6.26,13.67-8.04
				c5.26-1.92,10.81-2.89,16.41-2.87c6.24,0,11.28,1.1,15.12,3.31c3.68,2.03,6.37,5.5,7.42,9.57c1.12,4.18,0.83,9.23-0.86,15.15
				l-13.91,48.5h-14.1L1392.62,626.52z"/>
			<path class="st6" d="M1435.96,654.87c-0.54,1.37-0.54,2.89,0,4.25c0.6,1.04,1.76,1.63,2.95,1.49h6.99l-4.1,14.1h-8.72
				c-5.61,0-9.47-1.74-11.55-5.22c-2.08-3.5-2.2-8.41-0.38-14.77l24.61-86.07h15L1435.96,654.87z"/>
			<path class="st6" d="M1472.12,674.15c-3.45-0.8-6.76-2.12-9.82-3.92c-2.86-1.73-5.4-3.95-7.51-6.55l11.91-10.83
				c2.93,2.92,6.36,5.29,10.13,6.99c3.56,1.54,7.39,2.33,11.27,2.32c5.86,0,10.52-0.91,13.97-2.73c3.31-1.65,5.77-4.63,6.74-8.2
				c0.7-2.42,0.42-4.24-0.83-5.47c-1.48-1.31-3.31-2.16-5.26-2.43c-2.26-0.41-5.5-0.78-9.71-1.12h-1.23c-0.42,0-0.82,0-1.2-0.11
				h-0.57h-0.56c-4.01-0.25-7.98-0.97-11.83-2.15c-2.99-0.93-5.46-3.04-6.84-5.85c-1.44-2.86-1.39-6.96,0.14-12.31
				c1.31-4.92,3.73-9.47,7.08-13.3c3.3-3.6,7.43-6.33,12.03-7.96c5.46-1.87,11.2-2.77,16.97-2.65c3.67-0.03,7.34,0.34,10.94,1.09
				c3.22,0.68,6.34,1.76,9.28,3.23c2.85,1.45,5.48,3.29,7.82,5.47L1523,618.49c-2.88-2.31-6.11-4.16-9.57-5.47
				c-3.27-1.21-6.72-1.82-10.2-1.82c-4.18-0.19-8.34,0.7-12.07,2.58c-2.97,1.66-5.14,4.45-6,7.74c-0.59,2.04-0.31,3.57,0.83,4.58
				c1.38,1.13,3.06,1.83,4.83,2.04c2.08,0.35,5.1,0.64,9.05,0.88c0.29,0.04,0.59,0.07,0.89,0.07c0.32-0.02,0.64-0.02,0.96,0h0.44
				c0.15,0,0.29,0.03,0.42,0.08c4.36,0.2,8.68,0.91,12.88,2.11c3.28,0.96,6.01,3.26,7.52,6.33c1.63,3.14,1.59,7.7-0.14,13.67
				c-1.33,5.02-3.85,9.65-7.36,13.48c-3.54,3.69-7.94,6.45-12.8,8.04c-5.94,1.92-12.16,2.84-18.4,2.73
				C1480.19,675.55,1476.11,675.09,1472.12,674.15z"/>
			<line class="st7" x1="253.48" y1="514.62" x2="1441.35" y2="514.62"/>
		</g>
	</g>
</g>
</svg>
